<?xml version="1.0" standalone="no"?><!DOCTYPE svg PUBLIC "-//W3C//DTD SVG 1.1//EN" "http://www.w3.org/Graphics/SVG/1.1/DTD/svg11.dtd"><svg t="1586860387914" class="icon" viewBox="0 0 1024 1024" version="1.1" xmlns="http://www.w3.org/2000/svg" p-id="6764" width="64" height="64" xmlns:xlink="http://www.w3.org/1999/xlink"><defs><style type="text/css"></style></defs><path d="M101.521 296.29V173.619c0-35.291 28.708-63.999 63.999-63.999h122.672V66.954H165.52c-58.819 0-106.665 47.846-106.665 106.665V296.29h42.666zM725.518 109.62H848.19c35.277 0 63.999 28.708 63.999 63.999V296.29h42.666V173.619c0-58.819-47.86-106.665-106.665-106.665H725.518v42.666zM288.192 920.288H165.52c-35.291 0-63.999-28.722-63.999-63.999V733.617H58.855v122.672c0 58.805 47.846 106.665 106.665 106.665h122.672v-42.666zM912.189 733.617v122.672c0 35.277-28.722 63.999-63.999 63.999H725.518v42.666H848.19c58.805 0 106.665-47.86 106.665-106.665V733.617h-42.666z" fill="#4b5ca4" p-id="6765"></path><path d="M757.287 741.774H286.77c-30.454 0-56.34-25.886-56.34-56.34V444.845c0-28.931 22.841-51.772 51.772-51.772h30.454c10.659 0 21.318-7.614 25.886-18.273l18.273-48.727c10.659-30.454 39.59-50.249 73.09-50.249h187.293c31.977 0 60.908 19.795 73.09 50.249L708.56 374.8c4.568 10.659 13.704 18.273 25.886 18.273H764.9c28.932 0 51.772 22.841 51.772 51.772V683.91c-3.045 31.978-28.931 57.864-59.385 57.864zM282.202 425.05c-12.182 0-21.318 9.136-21.318 21.318v239.065c0 13.704 12.182 25.886 25.886 25.886h470.517c13.704 0 25.886-12.182 25.886-25.886V444.845c0-12.182-9.136-21.318-21.318-21.318h-30.454c-24.363 0-45.681-15.227-54.818-38.068l-18.273-48.727c-6.091-18.273-24.363-30.454-44.159-30.454h-185.77c-19.795 0-36.545 12.182-44.159 30.454l-18.273 48.727c-7.614 22.841-30.454 38.068-54.818 38.068H282.2l0.002 1.523z" fill="#4b5ca4" p-id="6766"></path><path d="M521.267 626.048c-66.999 0-121.817-54.818-121.817-121.817s54.818-121.817 121.817-121.817 121.817 54.818 121.817 121.817c1.523 66.999-53.295 121.817-121.817 121.817z m0-214.702c-50.249 0-91.363 41.113-91.363 91.363s41.113 91.363 91.363 91.363c50.249 0 91.363-41.113 91.363-91.363s-39.591-91.363-91.363-91.363z m225.361 74.612h-57.863c-9.136 0-15.227-6.091-15.227-15.227s6.091-15.227 15.227-15.227h57.863c9.136 0 15.227 6.091 15.227 15.227 0 9.137-6.091 15.227-15.227 15.227z m45.681 202.521H544.108c-9.136 0-15.227-6.091-15.227-15.227s6.091-15.227 15.227-15.227H792.31c9.136 0 15.227 6.091 15.227 15.227s-6.092 15.227-15.228 15.227z m-321.291 0h-33.5c-9.136 0-15.227-6.091-15.227-15.227s6.091-15.227 15.227-15.227h33.5c9.136 0 15.227 6.091 15.227 15.227s-7.614 15.227-15.227 15.227z m-112.681 0H257.838c-9.136 0-15.227-6.091-15.227-15.227s6.091-15.227 15.227-15.227H359.86c9.136 0 15.227 6.091 15.227 15.227s-7.614 15.227-16.75 15.227z" fill="#4b5ca4" p-id="6767"></path></svg>